# xmcd
#
# Track frame offsets:
# 150
# 11432
# 23687
# 37145
# 50590
# 62647
# 76072
# 87907
# 100940
# 110182
# 140997
# 154195
# 163845
# 179984
# 188989
# 196835
# 217844
#
# Disc length: 4440 seconds
#
#
# Revision: 1
# Processed by: cddbd v1.5.1PL0 Copyright (c) Steve Scherf et al.
# Submitted via: FreeRIP 2.60 
#
DISCID=f1115611
DTITLE=F. Egydio, R. Paiva, V. Moraes - Polemica/Orfeu da Conceicao
DYEAR=1956
DGENRE=MPB
TTITLE0=Lenço no pescoço
TTITLE1=Rapaz folgado
TTITLE2=Mocinho de vila
TTITLE3=Palpite infeliz
TTITLE4=Frankstein
TTITLE5=Feitiço da vila (Feitiço sem farofa)
TTITLE6=Conserva fiada
TTITLE7=João Ninguém
TTITLE8=Terra de cego
TTITLE9=Ouverture
TTITLE10=Monólogo de Orfeu (Orfeu da Conceição)
TTITLE11=Um nome de mulher
TTITLE12=Se todos fossem iguais a você
TTITLE13=Mulher, sempre mulher
TTITLE14=Eu e o meu amor
TTITLE15=Lamento no morro
TTITLE16=Copy Controlled Software
EXTD=Orfeu: 1956. Arranjos e Regência: A. C. Jobim.\nPolêmica: 1961. Arranjos e Regência:\nLyndolfo Gaya.\nCantores: F. Egydio e Roberto Paiva.
EXTT0=
EXTT1=
EXTT2=
EXTT3=
EXTT4=
EXTT5=
EXTT6=
EXTT7=
EXTT8=
EXTT9=
EXTT10=
EXTT11=
EXTT12=
EXTT13=
EXTT14=
EXTT15=
EXTT16=
PLAYORDER=
